<mxfile host="Electron" agent="Mozilla/5.0 (Windows NT 10.0; Win64; x64) AppleWebKit/537.36 (KHTML, like Gecko) draw.io/27.0.9 Chrome/134.0.6998.205 Electron/35.4.0 Safari/537.36" version="27.0.9">
  <diagram name="Página-1" id="4JTaqGiG4GTbNWQ9edI4">
    <mxGraphModel dx="1773" dy="1830" grid="1" gridSize="10" guides="1" tooltips="1" connect="1" arrows="1" fold="1" page="1" pageScale="1" pageWidth="827" pageHeight="1169" math="0" shadow="0">
      <root>
        <mxCell id="0" />
        <mxCell id="1" parent="0" />
        <mxCell id="4u7qaeyB-Heme8eSL70P-3" value="&lt;div&gt;&lt;span style=&quot;font-size: 10px;&quot;&gt;Ejercicio 32: Empresa de almacenamiento de fotos en la nube&lt;/span&gt;&lt;/div&gt;&lt;div&gt;&lt;span style=&quot;font-size: 10px;&quot;&gt;Una empresa que proporciona almacenamiento de fotos en la nube necesita una base de datos para almacenar&lt;/span&gt;&lt;/div&gt;&lt;div&gt;&lt;span style=&quot;font-size: 10px;&quot;&gt;todos los archivos.&lt;/span&gt;&lt;/div&gt;&lt;div&gt;&lt;span style=&quot;font-size: 10px;&quot;&gt;&lt;br&gt;&lt;/span&gt;&lt;/div&gt;&lt;div&gt;&lt;span style=&quot;font-size: 10px;&quot;&gt;&lt;font style=&quot;color: rgb(0, 204, 0);&quot;&gt;Las fotos se caracterizan por su URL que será única para cada foto, además se almacena el nombre del archivo,&lt;/font&gt;&lt;/span&gt;&lt;/div&gt;&lt;div&gt;&lt;span style=&quot;font-size: 10px;&quot;&gt;&lt;font style=&quot;color: rgb(0, 204, 0);&quot;&gt;tipo, tamaño, resolución y un campo que indica si la fotografía es pública o privada.&lt;/font&gt;&lt;/span&gt;&lt;/div&gt;&lt;div&gt;&lt;span style=&quot;font-size: 10px;&quot;&gt;&lt;font style=&quot;color: rgb(102, 255, 102);&quot;&gt;Los usuarios pueden añadir todas las etiquetas que necesiten a cada una de sus fotos para clasificarlas. Las&lt;/font&gt;&lt;/span&gt;&lt;/div&gt;&lt;div&gt;&lt;span style=&quot;font-size: 10px;&quot;&gt;&lt;font style=&quot;color: rgb(102, 255, 102);&quot;&gt;etiquetas se identificarán mediante un número, que irá aumentado automáticamente.&lt;/font&gt;&amp;nbsp;&lt;/span&gt;&lt;/div&gt;&lt;div&gt;&lt;font style=&quot;color: rgb(0, 204, 0);&quot;&gt;&lt;span style=&quot;font-size: 10px;&quot;&gt;Además del nombre de&amp;nbsp;&lt;/span&gt;&lt;span style=&quot;font-size: 10px; background-color: transparent;&quot;&gt;la etiqueta, se almacena el número total de fotos que la emplean. Para cada foto, el sistema también puede&amp;nbsp;&lt;/span&gt;&lt;span style=&quot;font-size: 10px; background-color: transparent;&quot;&gt;sugerir etiquetas adicionales, por lo que se debe indicar quién ha sugerido la etiqueta: el usuario o el sistema&lt;/span&gt;&lt;/font&gt;&lt;span style=&quot;font-size: 10px; background-color: transparent; color: light-dark(rgb(0, 0, 0), rgb(255, 255, 255));&quot;&gt;.&lt;/span&gt;&lt;/div&gt;&lt;div&gt;&lt;span style=&quot;font-size: 10px;&quot;&gt;&lt;font style=&quot;color: rgb(102, 255, 102);&quot;&gt;Para identificar a los usuarios, se almacena el nombre de usuario que será único, su password y su dirección&lt;/font&gt;&lt;/span&gt;&lt;/div&gt;&lt;div&gt;&lt;span style=&quot;font-size: 10px;&quot;&gt;&lt;font style=&quot;color: rgb(102, 255, 102);&quot;&gt;de correo electrónico, que no se podrá repetir.&amp;nbsp;&lt;/font&gt;&lt;/span&gt;&lt;/div&gt;&lt;div&gt;&lt;span style=&quot;font-size: 10px;&quot;&gt;&lt;font style=&quot;color: rgb(0, 204, 0);&quot;&gt;Una foto solo puede ser subida por un usuario.&lt;/font&gt;&lt;/span&gt;&lt;/div&gt;&lt;div&gt;&lt;span style=&quot;font-size: 10px;&quot;&gt;&lt;font style=&quot;color: rgb(102, 255, 102);&quot;&gt;Puede darse la situación de usuarios que no usen etiquetas en sus fotos.&lt;/font&gt;&lt;/span&gt;&lt;/div&gt;" style="text;html=1;align=left;verticalAlign=middle;whiteSpace=wrap;rounded=0;" parent="1" vertex="1">
          <mxGeometry x="-80" y="-40" width="540" height="220" as="geometry" />
        </mxCell>
        <mxCell id="4u7qaeyB-Heme8eSL70P-4" value="foto" style="whiteSpace=wrap;html=1;align=center;fillColor=#f0a30a;strokeColor=#BD7000;fontColor=#000000;" parent="1" vertex="1">
          <mxGeometry x="150" y="320" width="60" height="40" as="geometry" />
        </mxCell>
        <mxCell id="4u7qaeyB-Heme8eSL70P-5" value="" style="endArrow=none;html=1;rounded=0;exitX=0.5;exitY=0;exitDx=0;exitDy=0;" parent="1" source="4u7qaeyB-Heme8eSL70P-4" target="4u7qaeyB-Heme8eSL70P-6" edge="1">
          <mxGeometry relative="1" as="geometry">
            <mxPoint x="130" y="275" as="sourcePoint" />
            <mxPoint x="190" y="275" as="targetPoint" />
          </mxGeometry>
        </mxCell>
        <mxCell id="4u7qaeyB-Heme8eSL70P-6" value="&lt;u&gt;URL&lt;/u&gt;" style="ellipse;whiteSpace=wrap;html=1;align=center;" parent="1" vertex="1">
          <mxGeometry x="155" y="270" width="50" height="30" as="geometry" />
        </mxCell>
        <mxCell id="4u7qaeyB-Heme8eSL70P-23" value="usuario" style="whiteSpace=wrap;html=1;align=center;fillColor=#f0a30a;strokeColor=#BD7000;fontColor=#000000;" parent="1" vertex="1">
          <mxGeometry x="-130" y="320" width="80" height="40" as="geometry" />
        </mxCell>
        <mxCell id="7ET53O19MIQ0_UiLssNE-1" value="tiene" style="shape=rhombus;perimeter=rhombusPerimeter;whiteSpace=wrap;html=1;align=center;fillColor=#76608a;fontColor=#ffffff;strokeColor=#432D57;" vertex="1" parent="1">
          <mxGeometry x="270" y="320" width="90" height="40" as="geometry" />
        </mxCell>
        <mxCell id="7ET53O19MIQ0_UiLssNE-2" value="" style="endArrow=none;html=1;rounded=0;exitX=0;exitY=0.5;exitDx=0;exitDy=0;entryX=1;entryY=0.5;entryDx=0;entryDy=0;" edge="1" source="7ET53O19MIQ0_UiLssNE-1" parent="1" target="4u7qaeyB-Heme8eSL70P-4">
          <mxGeometry relative="1" as="geometry">
            <mxPoint x="327" y="310" as="sourcePoint" />
            <mxPoint x="230" y="340" as="targetPoint" />
          </mxGeometry>
        </mxCell>
        <mxCell id="7ET53O19MIQ0_UiLssNE-3" value="(1,N)" style="resizable=0;html=1;whiteSpace=wrap;align=right;verticalAlign=bottom;" connectable="0" vertex="1" parent="7ET53O19MIQ0_UiLssNE-2">
          <mxGeometry x="1" relative="1" as="geometry">
            <mxPoint x="34" as="offset" />
          </mxGeometry>
        </mxCell>
        <mxCell id="7ET53O19MIQ0_UiLssNE-4" value="" style="endArrow=none;html=1;rounded=0;exitX=1;exitY=0.5;exitDx=0;exitDy=0;entryX=0;entryY=0.5;entryDx=0;entryDy=0;" edge="1" source="7ET53O19MIQ0_UiLssNE-1" parent="1" target="7ET53O19MIQ0_UiLssNE-14">
          <mxGeometry relative="1" as="geometry">
            <mxPoint x="393" y="340" as="sourcePoint" />
            <mxPoint x="420" y="340" as="targetPoint" />
          </mxGeometry>
        </mxCell>
        <mxCell id="7ET53O19MIQ0_UiLssNE-5" value="(0,M)" style="resizable=0;html=1;whiteSpace=wrap;align=right;verticalAlign=bottom;" connectable="0" vertex="1" parent="7ET53O19MIQ0_UiLssNE-4">
          <mxGeometry x="1" relative="1" as="geometry">
            <mxPoint x="-1" as="offset" />
          </mxGeometry>
        </mxCell>
        <mxCell id="7ET53O19MIQ0_UiLssNE-9" value="publica" style="shape=rhombus;perimeter=rhombusPerimeter;whiteSpace=wrap;html=1;align=center;fillColor=#76608a;fontColor=#ffffff;strokeColor=#432D57;" vertex="1" parent="1">
          <mxGeometry x="20" y="320" width="90" height="40" as="geometry" />
        </mxCell>
        <mxCell id="7ET53O19MIQ0_UiLssNE-10" value="" style="endArrow=none;html=1;rounded=0;exitX=0;exitY=0.5;exitDx=0;exitDy=0;" edge="1" source="7ET53O19MIQ0_UiLssNE-9" parent="1">
          <mxGeometry relative="1" as="geometry">
            <mxPoint x="-33" y="310" as="sourcePoint" />
            <mxPoint x="-50" y="340" as="targetPoint" />
          </mxGeometry>
        </mxCell>
        <mxCell id="7ET53O19MIQ0_UiLssNE-11" value="(1,1)" style="resizable=0;html=1;whiteSpace=wrap;align=right;verticalAlign=bottom;" connectable="0" vertex="1" parent="7ET53O19MIQ0_UiLssNE-10">
          <mxGeometry x="1" relative="1" as="geometry">
            <mxPoint x="34" as="offset" />
          </mxGeometry>
        </mxCell>
        <mxCell id="7ET53O19MIQ0_UiLssNE-12" value="" style="endArrow=none;html=1;rounded=0;exitX=1;exitY=0.5;exitDx=0;exitDy=0;entryX=0;entryY=0.5;entryDx=0;entryDy=0;" edge="1" source="7ET53O19MIQ0_UiLssNE-9" parent="1" target="4u7qaeyB-Heme8eSL70P-4">
          <mxGeometry relative="1" as="geometry">
            <mxPoint x="-33" y="310" as="sourcePoint" />
            <mxPoint x="140" y="340" as="targetPoint" />
          </mxGeometry>
        </mxCell>
        <mxCell id="7ET53O19MIQ0_UiLssNE-13" value="(0,N)" style="resizable=0;html=1;whiteSpace=wrap;align=right;verticalAlign=bottom;" connectable="0" vertex="1" parent="7ET53O19MIQ0_UiLssNE-12">
          <mxGeometry x="1" relative="1" as="geometry">
            <mxPoint as="offset" />
          </mxGeometry>
        </mxCell>
        <mxCell id="7ET53O19MIQ0_UiLssNE-14" value="etiqueta" style="whiteSpace=wrap;html=1;align=center;fillColor=#f0a30a;strokeColor=#BD7000;fontColor=#000000;" vertex="1" parent="1">
          <mxGeometry x="420" y="320" width="70" height="40" as="geometry" />
        </mxCell>
        <mxCell id="7ET53O19MIQ0_UiLssNE-16" value="" style="endArrow=none;html=1;rounded=0;exitX=0.917;exitY=0.079;exitDx=0;exitDy=0;exitPerimeter=0;" edge="1" target="7ET53O19MIQ0_UiLssNE-17" parent="1" source="4u7qaeyB-Heme8eSL70P-4">
          <mxGeometry relative="1" as="geometry">
            <mxPoint x="205" y="265" as="sourcePoint" />
            <mxPoint x="265" y="265" as="targetPoint" />
          </mxGeometry>
        </mxCell>
        <mxCell id="7ET53O19MIQ0_UiLssNE-17" value="nombre" style="ellipse;whiteSpace=wrap;html=1;align=center;" vertex="1" parent="1">
          <mxGeometry x="210" y="250" width="50" height="30" as="geometry" />
        </mxCell>
        <mxCell id="7ET53O19MIQ0_UiLssNE-18" value="" style="endArrow=none;html=1;rounded=0;exitX=0;exitY=0;exitDx=0;exitDy=0;" edge="1" target="7ET53O19MIQ0_UiLssNE-19" parent="1" source="4u7qaeyB-Heme8eSL70P-4">
          <mxGeometry relative="1" as="geometry">
            <mxPoint x="65" y="285" as="sourcePoint" />
            <mxPoint x="125" y="285" as="targetPoint" />
          </mxGeometry>
        </mxCell>
        <mxCell id="7ET53O19MIQ0_UiLssNE-19" value="tipo" style="ellipse;whiteSpace=wrap;html=1;align=center;" vertex="1" parent="1">
          <mxGeometry x="100" y="250" width="50" height="30" as="geometry" />
        </mxCell>
        <mxCell id="7ET53O19MIQ0_UiLssNE-20" value="" style="endArrow=none;html=1;rounded=0;exitX=0;exitY=1;exitDx=0;exitDy=0;" edge="1" target="7ET53O19MIQ0_UiLssNE-21" parent="1" source="4u7qaeyB-Heme8eSL70P-4">
          <mxGeometry relative="1" as="geometry">
            <mxPoint x="70" y="405" as="sourcePoint" />
            <mxPoint x="130" y="405" as="targetPoint" />
          </mxGeometry>
        </mxCell>
        <mxCell id="7ET53O19MIQ0_UiLssNE-21" value="tamaño" style="ellipse;whiteSpace=wrap;html=1;align=center;" vertex="1" parent="1">
          <mxGeometry x="100" y="390" width="50" height="30" as="geometry" />
        </mxCell>
        <mxCell id="7ET53O19MIQ0_UiLssNE-22" value="" style="endArrow=none;html=1;rounded=0;exitX=0.5;exitY=1;exitDx=0;exitDy=0;" edge="1" target="7ET53O19MIQ0_UiLssNE-23" parent="1" source="4u7qaeyB-Heme8eSL70P-4">
          <mxGeometry relative="1" as="geometry">
            <mxPoint x="138" y="445" as="sourcePoint" />
            <mxPoint x="198" y="445" as="targetPoint" />
          </mxGeometry>
        </mxCell>
        <mxCell id="7ET53O19MIQ0_UiLssNE-23" value="resolucion" style="ellipse;whiteSpace=wrap;html=1;align=center;" vertex="1" parent="1">
          <mxGeometry x="143" y="420" width="67" height="30" as="geometry" />
        </mxCell>
        <mxCell id="7ET53O19MIQ0_UiLssNE-24" value="" style="endArrow=none;html=1;rounded=0;exitX=1;exitY=1;exitDx=0;exitDy=0;" edge="1" target="7ET53O19MIQ0_UiLssNE-25" parent="1" source="4u7qaeyB-Heme8eSL70P-4">
          <mxGeometry relative="1" as="geometry">
            <mxPoint x="200" y="405" as="sourcePoint" />
            <mxPoint x="260" y="405" as="targetPoint" />
          </mxGeometry>
        </mxCell>
        <mxCell id="7ET53O19MIQ0_UiLssNE-25" value="privacidad" style="ellipse;whiteSpace=wrap;html=1;align=center;" vertex="1" parent="1">
          <mxGeometry x="205" y="390" width="75" height="30" as="geometry" />
        </mxCell>
        <mxCell id="7ET53O19MIQ0_UiLssNE-26" value="" style="endArrow=none;html=1;rounded=0;exitX=0.5;exitY=0;exitDx=0;exitDy=0;" edge="1" target="7ET53O19MIQ0_UiLssNE-27" parent="1" source="7ET53O19MIQ0_UiLssNE-14">
          <mxGeometry relative="1" as="geometry">
            <mxPoint x="413" y="285" as="sourcePoint" />
            <mxPoint x="473" y="285" as="targetPoint" />
          </mxGeometry>
        </mxCell>
        <mxCell id="7ET53O19MIQ0_UiLssNE-27" value="&lt;u&gt;nombre&lt;/u&gt;" style="ellipse;whiteSpace=wrap;html=1;align=center;" vertex="1" parent="1">
          <mxGeometry x="430" y="270" width="50" height="30" as="geometry" />
        </mxCell>
        <mxCell id="7ET53O19MIQ0_UiLssNE-28" value="" style="endArrow=none;html=1;rounded=0;exitX=1;exitY=0;exitDx=0;exitDy=0;" edge="1" target="7ET53O19MIQ0_UiLssNE-29" parent="1" source="7ET53O19MIQ0_UiLssNE-14">
          <mxGeometry relative="1" as="geometry">
            <mxPoint x="490" y="285" as="sourcePoint" />
            <mxPoint x="550" y="285" as="targetPoint" />
          </mxGeometry>
        </mxCell>
        <mxCell id="7ET53O19MIQ0_UiLssNE-29" value="nFotos" style="ellipse;whiteSpace=wrap;html=1;align=center;" vertex="1" parent="1">
          <mxGeometry x="490" y="270" width="50" height="30" as="geometry" />
        </mxCell>
        <mxCell id="7ET53O19MIQ0_UiLssNE-30" value="" style="endArrow=none;html=1;rounded=0;exitX=0;exitY=0;exitDx=0;exitDy=0;" edge="1" target="7ET53O19MIQ0_UiLssNE-31" parent="1" source="7ET53O19MIQ0_UiLssNE-14">
          <mxGeometry relative="1" as="geometry">
            <mxPoint x="329" y="285" as="sourcePoint" />
            <mxPoint x="389" y="285" as="targetPoint" />
          </mxGeometry>
        </mxCell>
        <mxCell id="7ET53O19MIQ0_UiLssNE-31" value="sugeridor" style="ellipse;whiteSpace=wrap;html=1;align=center;" vertex="1" parent="1">
          <mxGeometry x="350" y="270" width="64" height="30" as="geometry" />
        </mxCell>
        <mxCell id="7ET53O19MIQ0_UiLssNE-32" value="" style="endArrow=none;html=1;rounded=0;exitX=0.5;exitY=0;exitDx=0;exitDy=0;" edge="1" target="7ET53O19MIQ0_UiLssNE-33" parent="1" source="4u7qaeyB-Heme8eSL70P-23">
          <mxGeometry relative="1" as="geometry">
            <mxPoint x="-140" y="285" as="sourcePoint" />
            <mxPoint x="-80" y="285" as="targetPoint" />
          </mxGeometry>
        </mxCell>
        <mxCell id="7ET53O19MIQ0_UiLssNE-33" value="&lt;u&gt;username&lt;/u&gt;" style="ellipse;whiteSpace=wrap;html=1;align=center;" vertex="1" parent="1">
          <mxGeometry x="-118.75" y="250" width="57.5" height="30" as="geometry" />
        </mxCell>
        <mxCell id="7ET53O19MIQ0_UiLssNE-34" value="" style="endArrow=none;html=1;rounded=0;" edge="1" target="7ET53O19MIQ0_UiLssNE-35" parent="1" source="4u7qaeyB-Heme8eSL70P-23">
          <mxGeometry relative="1" as="geometry">
            <mxPoint x="-65" y="245" as="sourcePoint" />
            <mxPoint x="-5" y="245" as="targetPoint" />
          </mxGeometry>
        </mxCell>
        <mxCell id="7ET53O19MIQ0_UiLssNE-35" value="psswd" style="ellipse;whiteSpace=wrap;html=1;align=center;" vertex="1" parent="1">
          <mxGeometry x="-61.25" y="260" width="50" height="30" as="geometry" />
        </mxCell>
        <mxCell id="7ET53O19MIQ0_UiLssNE-36" value="" style="endArrow=none;html=1;rounded=0;exitX=0.25;exitY=0;exitDx=0;exitDy=0;" edge="1" target="7ET53O19MIQ0_UiLssNE-37" parent="1" source="4u7qaeyB-Heme8eSL70P-23">
          <mxGeometry relative="1" as="geometry">
            <mxPoint x="-204" y="275" as="sourcePoint" />
            <mxPoint x="-144" y="275" as="targetPoint" />
          </mxGeometry>
        </mxCell>
        <mxCell id="7ET53O19MIQ0_UiLssNE-37" value="correo" style="ellipse;whiteSpace=wrap;html=1;align=center;" vertex="1" parent="1">
          <mxGeometry x="-169" y="260" width="50" height="30" as="geometry" />
        </mxCell>
      </root>
    </mxGraphModel>
  </diagram>
</mxfile>
